Coordinates
version=1
nRows=16
nColumns=40
inDegrees=yes

Units are S.I. units (second, meters, Newtons, ...)
Angles are in degrees.

endheader
time	pelvis_tilt	pelvis_list	pelvis_rotation	pelvis_tx	pelvis_ty	pelvis_tz	hip_flexion_r	hip_adduction_r	hip_rotation_r	knee_angle_r	knee_angle_r_beta	ankle_angle_r	subtalar_angle_r	mtp_angle_r	hip_flexion_l	hip_adduction_l	hip_rotation_l	knee_angle_l	knee_angle_l_beta	ankle_angle_l	subtalar_angle_l	mtp_angle_l	lumbar_extension	lumbar_bending	lumbar_rotation	arm_flex_r	arm_add_r	arm_rot_r	elbow_flex_r	pro_sup_r	wrist_flex_r	wrist_dev_r	arm_flex_l	arm_add_l	arm_rot_l	elbow_flex_l	pro_sup_l	wrist_flex_l	wrist_dev_l
     41.16300000	     -2.98503091	     -3.42325438	     -4.73008301	      1.07576324	      0.93133288	      0.43335515	     23.02125139	     -1.86564030	    -11.51412508	     15.74850507	     15.74850507	      3.93216524	      4.42224276	      5.75430533	      4.20981175	     -5.41082712	    -12.73657912	     16.07227485	     16.07227485	     14.87699205	     -9.66234456	     -4.62630784	    -10.72669469	      4.96308568	      0.25412573	     -9.24137053	    -12.37444975	     -8.48334026	     28.72822386	     47.07178463	      0.00000000	      0.00000000	     22.59966679	    -20.40896370	    -10.33274368	     76.49781214	     47.08559932	      0.00000000	      0.00000000
     41.17600000	     -2.85023410	     -3.44333210	     -4.68897305	      1.07778530	      0.93072961	      0.43556634	     22.39518289	     -1.71929372	    -11.29283829	     16.73711952	     16.73711952	      4.11444045	      3.96729757	      5.10253951	      3.39493618	     -5.51347578	    -12.81583440	     15.80763671	     15.80763671	     15.19929533	     -9.42618086	     -4.72937692	    -10.52427458	      5.09648662	      0.18682277	     -8.95368451	    -12.37900832	     -8.51840888	     29.04372418	     47.05843869	      0.00000000	      0.00000000	     22.22535221	    -20.14693857	    -10.35352411	     76.33203879	     47.08660504	      0.00000000	      0.00000000
     41.18900000	     -2.67661935	     -3.24448057	     -4.70646174	      1.08003530	      0.92991529	      0.43801832	     21.69156867	     -1.64712164	    -10.34940854	     17.41739231	     17.41739231	      3.04885390	      2.48586194	      0.45538014	      2.48244991	     -5.45491069	    -13.44467665	     15.50489442	     15.50489442	     15.83163786	     -8.25483988	     -4.66390197	    -10.33649650	      4.95602713	     -0.05106955	     -9.01236799	    -12.41749386	     -8.47128161	     30.83099978	     46.90799277	      0.00000000	      0.00000000	     21.72906033	    -19.84732919	    -11.40417954	     76.24038867	     47.21969991	      0.00000000	      0.00000000
     41.20200000	     -2.50674089	     -3.13491789	     -4.67488246	      1.08226075	      0.92923596	      0.44037685	     21.15491155	     -1.62253874	     -9.86708298	     18.41455201	     18.41455201	      3.56655657	      2.01233050	     -0.05276556	      1.62155315	     -5.40547572	    -13.49941161	     15.22453535	     15.22453535	     16.17958917	     -8.05212088	     -4.50532256	    -10.13253993	      4.92928091	     -0.13080342	     -8.50586519	    -12.42444670	     -8.40193356	     31.09865693	     46.88603782	      0.00000000	      0.00000000	     21.26382090	    -19.69699210	    -11.28295457	     75.80599229	     47.21053138	      0.00000000	      0.00000000
     41.21500000	     -2.41665682	     -3.17557290	     -4.61576297	      1.08445850	      0.92854948	      0.44281851	     20.56716828	     -1.42803553	     -9.53643858	     18.99808406	     18.99808406	      4.14317850	      1.83406613	     -0.38692460	      1.00865036	     -5.57346377	    -13.44087746	     15.25427231	     15.25427231	     16.49551366	     -8.06855859	     -4.49504152	     -9.85367992	      5.09172897	     -0.05234554	     -8.00869663	    -12.44068131	     -8.38326670	     31.33226712	     46.87683445	      0.00000000	      0.00000000	     20.71132453	    -19.27878270	    -11.13538282	     75.52124755	     47.19388133	      0.00000000	      0.00000000
     41.22800000	     -2.18793051	     -3.12097594	     -4.60426158	      1.08659342	      0.92809435	      0.44549832	     20.10011243	     -1.24378093	     -8.67534737	     19.82326241	     19.82326241	      4.44739617	      0.55666098	     -1.61594232	      0.38722696	     -5.74670386	    -13.84429613	     15.67734537	     15.67734537	     17.90186376	     -7.00930753	     -2.17620304	     -9.75868365	      5.13626821	     -0.24229552	     -7.53284870	    -12.69555468	     -7.51939176	     32.57866112	     46.70161157	      0.00000000	      0.00000000	     20.13744199	    -18.93125636	    -11.90085036	     74.42110080	     47.28132803	      0.00000000	      0.00000000
     41.24100000	     -2.04607662	     -3.18354485	     -4.57246720	      1.08864470	      0.92775730	      0.44811998	     19.58806049	     -1.03171422	     -8.38265081	     20.29284424	     20.29284424	      5.12249325	      0.40803585	     -1.92822542	     -0.13584303	     -5.98190679	    -13.77338901	     15.95201709	     15.95201709	     18.07283024	     -7.17196652	     -2.16702474	     -9.60164339	      5.30979643	     -0.07044045	     -6.85910404	    -12.75802518	     -7.50805424	     32.87349391	     46.69212864	      0.00000000	      0.00000000	     19.41316717	    -18.44644473	    -11.71852693	     74.04357779	     47.25906036	      0.00000000	      0.00000000
     41.25400000	     -1.83879911	     -3.24199931	     -4.55998573	      1.09054985	      0.92767111	      0.45087350	     19.08925948	     -0.82238168	     -8.09680027	     20.78463224	     20.78463224	      5.83073772	      0.14400611	     -2.24411319	     -0.59669817	     -6.25182763	    -13.69181089	     16.46292058	     16.46292058	     18.18931611	     -7.41888798	     -2.11945427	     -9.56446514	      5.46396357	      0.08831532	     -6.04465183	    -12.86571477	     -7.50523311	     33.26814991	     46.68031588	      0.00000000	      0.00000000	     18.60823234	    -18.00419065	    -11.59163734	     73.49732248	     47.23712799	      0.00000000	      0.00000000
     41.26700000	     -1.81817178	     -3.40220230	     -4.45390967	      1.09195784	      0.92740086	      0.45380726	     18.90080539	     -0.40851229	     -7.55880102	     21.32502792	     21.32502792	      6.32326657	     -1.05215753	     -2.42249165	     -0.30658647	     -6.81546945	    -13.43151425	     17.97840670	     17.97840670	     18.66249405	     -7.83507206	     -1.40353916	     -9.29801891	      5.74952215	     -0.45598792	     -4.99581810	    -13.03362951	     -7.26111344	     34.45612444	     46.60839970	      0.00000000	      0.00000000	     17.77930515	    -17.95270576	    -12.26840291	     71.59544784	     47.25844049	      0.00000000	      0.00000000
     41.28000000	     -1.67512199	     -3.56078920	     -4.36994381	      1.09331716	      0.92759575	      0.45677836	     18.43280916	     -0.07512589	     -7.44649566	     21.56924854	     21.56924854	      6.85994340	     -1.40160520	     -2.62400668	     -0.09538448	     -7.38259799	    -13.18834952	     19.55762298	     19.55762298	     18.88985168	     -8.31213630	     -0.94178772	     -9.24240079	      6.00231571	     -0.44445243	     -4.09363101	    -13.21659258	     -6.94076839	     35.44084825	     46.54175295	      0.00000000	      0.00000000	     17.05227753	    -17.40177304	    -12.65172202	     70.26043338	     47.26692872	      0.00000000	      0.00000000
     41.29300000	     -1.52151944	     -3.71320240	     -4.25814286	      1.09447291	      0.92797421	      0.45982158	     17.91110243	      0.23787227	     -7.44981948	     21.70174459	     21.70174459	      7.34831058	     -1.57750121	     -2.77791102	      0.30449827	     -7.98918392	    -12.78961859	     21.44475068	     21.44475068	     18.86339431	     -8.95364215	     -0.82074126	     -9.25465177	      6.20119423	     -0.43714144	     -3.10017880	    -13.37673114	     -6.65188791	     36.46003565	     46.47982648	      0.00000000	      0.00000000	     16.25762036	    -16.88684402	    -12.89856600	     68.87235860	     47.26250982	      0.00000000	      0.00000000
     41.30600000	     -1.30368986	     -3.90269096	     -4.09465978	      1.09543816	      0.92854834	      0.46286532	     17.25635986	      0.56842119	     -7.63635644	     21.72676470	     21.72676470	      7.82842686	     -1.63127468	     -2.91230142	      0.89942305	     -8.69042124	    -12.30619159	     23.75362579	     23.75362579	     18.55176725	     -9.81568728	     -0.99878121	     -9.36771127	      6.45602838	     -0.45652947	     -1.99701487	    -13.53772294	     -6.45775882	     37.43984602	     46.43047049	      0.00000000	      0.00000000	     15.50217879	    -16.45529083	    -13.02505636	     67.53772585	     47.24847353	      0.00000000	      0.00000000
     41.31900000	     -1.17157301	     -4.07459364	     -3.88550585	      1.09613187	      0.92908580	      0.46590689	     16.63824175	      0.88175099	     -7.89179144	     21.62664866	     21.62664866	      8.21411032	     -1.57310627	     -3.00317280	      1.85637031	     -9.42295912	    -11.65572035	     26.46614744	     26.46614744	     17.99906404	    -10.80098215	     -1.38735019	     -9.37690945	      6.67109261	     -0.55693553	     -0.85008399	    -13.68393542	     -6.21333318	     38.62818721	     46.37065735	      0.00000000	      0.00000000	     14.68924315	    -15.98984811	    -13.16980668	     65.85917868	     47.23009429	      0.00000000	      0.00000000
     41.33200000	     -1.04221566	     -4.17798588	     -3.65788190	      1.09663830	      0.92967109	      0.46884295	     16.00399281	      1.10574102	     -8.22572364	     21.48832024	     21.48832024	      8.58039081	     -1.38113760	     -3.06192903	      2.96611808	    -10.04972730	    -10.82647091	     29.31146267	     29.31146267	     16.74150081	    -12.22985057	     -2.76400158	     -9.35307644	      6.85038100	     -0.21229134	     -0.72122749	    -14.43053722	     -4.40157516	     42.00025314	     46.10752411	      0.00000000	      0.00000000	     15.04394147	    -14.86559200	    -14.01801460	     61.78214189	     47.24726958	      0.00000000	      0.00000000
     41.34500000	     -0.91541954	     -4.32800380	     -3.37080396	      1.09691336	      0.93019405	      0.47172452	     15.32352346	      1.37383456	     -8.66604150	     21.26161595	     21.26161595	      8.89277557	     -1.11339065	     -3.18631191	      4.32389569	    -10.76937136	     -9.95107697	     32.50167393	     32.50167393	     15.18307173	    -13.62914338	     -4.41902118	     -9.40575964	      7.02759598	     -0.12245000	     -0.00409994	    -14.94259036	     -3.38053900	     44.43603552	     45.93368353	      0.00000000	      0.00000000	     14.57633437	    -14.44098585	    -13.60226798	     59.43340694	     47.18875449	      0.00000000	      0.00000000
     41.35800000	     -0.70688155	     -4.51567829	     -3.05803938	      1.09700672	      0.93080146	      0.47456377	     14.51929265	      1.69638093	     -9.09579156	     20.96498378	     20.96498378	      9.18209166	     -0.88431073	     -3.24612803	      5.81106840	    -11.54043952	     -9.03194674	     36.03856868	     36.03856868	     13.96351085	    -14.62151251	     -4.78427692	     -9.62367384	      7.19219621	     -0.17205962	      1.45558352	    -15.07470751	     -3.44370440	     45.37924559	     45.90774745	      0.00000000	      0.00000000	     13.68510465	    -14.07138951	    -13.41125521	     58.26214208	     47.15064113	      0.00000000	      0.00000000
